<svg width="512" height="512" viewBox="0 0 512 512" fill="none" xmlns="http://www.w3.org/2000/svg">
  <defs>
    <linearGradient id="bg-gradient" x1="0" y1="0" x2="1" y2="1">
      <stop offset="0%" stop-color="#007ACC" />
      <stop offset="100%" stop-color="#4AA61F" />
    </linearGradient>
    <radialGradient id="glow" cx="0" cy="0" r="1" gradientUnits="userSpaceOnUse" gradientTransform="translate(160 160) rotate(45) scale(260)">
      <stop offset="0%" stop-color="#FFFFFF" stop-opacity="0.2" />
      <stop offset="100%" stop-color="#FFFFFF" stop-opacity="0" />
    </radialGradient>
    <filter id="dropshadow" height="130%">
      <feGaussianBlur in="SourceAlpha" stdDeviation="14"/>
      <feOffset dx="0" dy="10" result="offsetblur"/>
      <feComponentTransfer>
        <feFuncA type="linear" slope="0.28"/>
      </feComponentTransfer>
      <feMerge>
        <feMergeNode/>
        <feMergeNode in="SourceGraphic"/>
      </feMerge>
    </filter>
  </defs>

  <rect x="20" y="20" width="472" height="472" rx="90" fill="url(#bg-gradient)" filter="url(#dropshadow)" />
  <rect x="20" y="20" width="472" height="472" rx="90" fill="url(#glow)" />

  <path d="M152 320c-42 0-76-30-76-68 0-32 24-60 57-66 9-46 52-81 105-81 50 0 92 30 103 73 40 3 72 33 72 70 0 39-34 72-76 72H152z" fill="#FFFFFF" opacity="0.28" transform="translate(256 256) scale(1.08) translate(-256 -256)" />

  <g fill="white" opacity="0.95">
    <g id="code-dots">
      <rect x="107" y="252" width="8" height="8" rx="1"/>
      <rect x="114" y="246" width="8" height="8" rx="1"/>
      <rect x="120" y="239" width="8" height="8" rx="1"/>
      <rect x="127" y="233" width="8" height="8" rx="1"/>
      <rect x="133" y="226" width="8" height="8" rx="1"/>
      <rect x="140" y="220" width="8" height="8" rx="1"/>
      <rect x="146" y="213" width="8" height="8" rx="1"/>
      <rect x="153" y="207" width="8" height="8" rx="1"/>
      <rect x="159" y="200" width="8" height="8" rx="1"/>
      <rect x="166" y="194" width="8" height="8" rx="1"/>
      <rect x="172" y="187" width="8" height="8" rx="1"/>
      <rect x="179" y="181" width="8" height="8" rx="1"/>
      <rect x="185" y="174" width="8" height="8" rx="1"/>
      <rect x="114" y="259" width="8" height="8" rx="1"/>
      <rect x="120" y="265" width="8" height="8" rx="1"/>
      <rect x="127" y="272" width="8" height="8" rx="1"/>
      <rect x="133" y="278" width="8" height="8" rx="1"/>
      <rect x="140" y="285" width="8" height="8" rx="1"/>
      <rect x="146" y="291" width="8" height="8" rx="1"/>
      <rect x="153" y="298" width="8" height="8" rx="1"/>
      <rect x="159" y="304" width="8" height="8" rx="1"/>
      <rect x="166" y="311" width="8" height="8" rx="1"/>
      <rect x="172" y="317" width="8" height="8" rx="1"/>
      <rect x="179" y="324" width="8" height="8" rx="1"/>
      <rect x="185" y="330" width="8" height="8" rx="1"/>

      <rect x="397" y="252" width="8" height="8" rx="1"/>
      <rect x="391" y="246" width="8" height="8" rx="1"/>
      <rect x="384" y="239" width="8" height="8" rx="1"/>
      <rect x="378" y="233" width="8" height="8" rx="1"/>
      <rect x="371" y="226" width="8" height="8" rx="1"/>
      <rect x="365" y="220" width="8" height="8" rx="1"/>
      <rect x="358" y="213" width="8" height="8" rx="1"/>
      <rect x="352" y="207" width="8" height="8" rx="1"/>
      <rect x="345" y="200" width="8" height="8" rx="1"/>
      <rect x="339" y="194" width="8" height="8" rx="1"/>
      <rect x="332" y="187" width="8" height="8" rx="1"/>
      <rect x="326" y="181" width="8" height="8" rx="1"/>
      <rect x="319" y="174" width="8" height="8" rx="1"/>
      <rect x="391" y="259" width="8" height="8" rx="1"/>
      <rect x="384" y="265" width="8" height="8" rx="1"/>
      <rect x="378" y="272" width="8" height="8" rx="1"/>
      <rect x="371" y="278" width="8" height="8" rx="1"/>
      <rect x="365" y="285" width="8" height="8" rx="1"/>
      <rect x="358" y="291" width="8" height="8" rx="1"/>
      <rect x="352" y="298" width="8" height="8" rx="1"/>
      <rect x="345" y="304" width="8" height="8" rx="1"/>
      <rect x="339" y="311" width="8" height="8" rx="1"/>
      <rect x="332" y="317" width="8" height="8" rx="1"/>
      <rect x="326" y="324" width="8" height="8" rx="1"/>
      <rect x="319" y="330" width="8" height="8" rx="1"/>

      <rect x="282" y="164" width="8" height="8" rx="1"/>
      <rect x="278" y="175" width="8" height="8" rx="1"/>
      <rect x="274" y="186" width="8" height="8" rx="1"/>
      <rect x="270" y="197" width="8" height="8" rx="1"/>
      <rect x="266" y="208" width="8" height="8" rx="1"/>
      <rect x="262" y="219" width="8" height="8" rx="1"/>
      <rect x="258" y="230" width="8" height="8" rx="1"/>
      <rect x="254" y="241" width="8" height="8" rx="1"/>
      <rect x="250" y="252" width="8" height="8" rx="1"/>
      <rect x="246" y="263" width="8" height="8" rx="1"/>
      <rect x="242" y="274" width="8" height="8" rx="1"/>
      <rect x="238" y="285" width="8" height="8" rx="1"/>
      <rect x="234" y="296" width="8" height="8" rx="1"/>
      <rect x="230" y="307" width="8" height="8" rx="1"/>
      <rect x="226" y="318" width="8" height="8" rx="1"/>
      <rect x="224" y="329" width="8" height="8" rx="1"/>
      <rect x="222" y="340" width="8" height="8" rx="1"/>
    </g>
    <use href="#code-dots" transform="translate(-12 0)"/>
    <use href="#code-dots" transform="translate(12 0)"/>
  </g>

  <g fill="#E7F4EC" opacity="0.9">
    <rect x="120" y="356" width="14" height="14" rx="3"/>
    <rect x="140" y="372" width="12" height="12" rx="3"/>
    <rect x="372" y="128" width="14" height="14" rx="3"/>
    <rect x="396" y="150" width="10" height="10" rx="3"/>
  </g>
</svg>
