<svg width="512" height="512" viewBox="0 0 512 512" fill="none" xmlns="http://www.w3.org/2000/svg">
  <defs>
    <linearGradient id="bg-gradient" x1="0" y1="0" x2="1" y2="1">
      <stop offset="0%" stop-color="#007ACC" />
      <stop offset="100%" stop-color="#4AA61F" />
    </linearGradient>
    <radialGradient id="glow" cx="0" cy="0" r="1" gradientUnits="userSpaceOnUse" gradientTransform="translate(160 160) rotate(45) scale(260)">
      <stop offset="0%" stop-color="#FFFFFF" stop-opacity="0.2" />
      <stop offset="100%" stop-color="#FFFFFF" stop-opacity="0" />
    </radialGradient>
    <filter id="dropshadow" height="130%">
      <feGaussianBlur in="SourceAlpha" stdDeviation="14"/>
      <feOffset dx="0" dy="10" result="offsetblur"/>
      <feComponentTransfer>
        <feFuncA type="linear" slope="0.28"/>
      </feComponentTransfer>
      <feMerge>
        <feMergeNode/>
        <feMergeNode in="SourceGraphic"/>
      </feMerge>
    </filter>
  </defs>

  <rect x="20" y="20" width="472" height="472" rx="90" fill="url(#bg-gradient)" filter="url(#dropshadow)" />
  <rect x="20" y="20" width="472" height="472" rx="90" fill="url(#glow)" />

  <path d="M152 320c-42 0-76-30-76-68 0-32 24-60 57-66 9-46 52-81 105-81 50 0 92 30 103 73 40 3 72 33 72 70 0 39-34 72-76 72H152z" fill="#FFFFFF" opacity="0.28" transform="translate(256 256) scale(1.08) translate(-256 -256)" />

  <path d="M111 256 L189 176 M111 256 L189 336" stroke="white" stroke-width="36" stroke-linecap="round" stroke-linejoin="round"/>
  <path d="M401 256 L323 176 M401 256 L323 336" stroke="white" stroke-width="36" stroke-linecap="round" stroke-linejoin="round"/>
  <path d="M286 168 L226 344" stroke="white" stroke-width="36" stroke-linecap="round"/>

  <g fill="#E7F4EC" opacity="0.9">
    <rect x="120" y="356" width="14" height="14" rx="3"/>
    <rect x="140" y="372" width="12" height="12" rx="3"/>
    <rect x="372" y="128" width="14" height="14" rx="3"/>
    <rect x="396" y="150" width="10" height="10" rx="3"/>
  </g>
</svg>
